<svg width="44" height="44" viewBox="0 0 44 44" fill="none" xmlns="http://www.w3.org/2000/svg">
<path d="M7.33331 12.8334H36.6666" stroke="white" stroke-width="2.75" stroke-linecap="round" stroke-linejoin="round"/>
<path d="M18.3333 20.1666V31.1666" stroke="white" stroke-width="2.75" stroke-linecap="round" stroke-linejoin="round"/>
<path d="M25.6667 20.1666V31.1666" stroke="white" stroke-width="2.75" stroke-linecap="round" stroke-linejoin="round"/>
<path d="M9.16669 12.8334L11 34.8334C11 35.8058 11.3863 36.7385 12.074 37.4261C12.7616 38.1137 13.6942 38.5 14.6667 38.5H29.3334C30.3058 38.5 31.2384 38.1137 31.9261 37.4261C32.6137 36.7385 33 35.8058 33 34.8334L34.8334 12.8334" stroke="white" stroke-width="2.75" stroke-linecap="round" stroke-linejoin="round"/>
<path d="M16.5 12.8333V7.33333C16.5 6.8471 16.6932 6.38079 17.037 6.03697C17.3808 5.69315 17.8471 5.5 18.3333 5.5H25.6667C26.1529 5.5 26.6192 5.69315 26.963 6.03697C27.3068 6.38079 27.5 6.8471 27.5 7.33333V12.8333" stroke="white" stroke-width="2.75" stroke-linecap="round" stroke-linejoin="round"/>
</svg>
